HIERARCHY
ROOT Root
{
  OFFSET 0.0 0.0 0.0
  CHANNELS 6 Xposition Yposition Zposition Zrotation Yrotation Xrotation
  JOINT Hips
  {
    OFFSET 0.0 100.0 0.0
    CHANNELS 6 Xposition Yposition Zposition Zrotation Yrotation Xrotation
    JOINT Spine1
    {
      OFFSET 5.003913 -0.037094 -0.013727
      CHANNELS 3 Zrotation Yrotation Xrotation
      JOINT Spine2
      {
        OFFSET 7.125363 -1e-06 0.0
        CHANNELS 3 Zrotation Yrotation Xrotation
        JOINT Chest
        {
          OFFSET 7.594027 1e-06 0.0
          CHANNELS 3 Zrotation Yrotation Xrotation
          JOINT Neck1
          {
            OFFSET 26.313086 -0.460272 -0.181672
            CHANNELS 3 Zrotation Yrotation Xrotation
            JOINT Neck2
            {
              OFFSET 8.045911 0.0 0.0
              CHANNELS 3 Zrotation Yrotation Xrotation
              JOINT Head
              {
                OFFSET 6.432774 0.0 0.0
                CHANNELS 3 Zrotation Yrotation Xrotation
                JOINT HeadEnd
                {
                  OFFSET 16.169773 0.06451 0.00362
                  CHANNELS 3 Zrotation Yrotation Xrotation
                }
                JOINT Jaw
                {
                  OFFSET 0.108741 3.12938 0.002639
                  CHANNELS 3 Zrotation Yrotation Xrotation
                }
                JOINT LeftEye
                {
                  OFFSET 4.45173 8.166359 3.206392
                  CHANNELS 3 Zrotation Yrotation Xrotation
                }
                JOINT RightEye
                {
                  OFFSET 4.436895 8.135758 -3.222429
                  CHANNELS 3 Zrotation Yrotation Xrotation
                }
              }
            }
          }
          JOINT LeftShoulder
          {
            OFFSET 23.218927 5.195579 1.621656
            CHANNELS 3 Zrotation Yrotation Xrotation
            JOINT LeftArm
            {
              OFFSET 15.902118 2e-06 -2e-06
              CHANNELS 3 Zrotation Yrotation Xrotation
              JOINT LeftForeArm
              {
                OFFSET 28.739307 0.0 -1e-06
                CHANNELS 3 Zrotation Yrotation Xrotation
                JOINT LeftHand
                {
                  OFFSET 27.093981 -4e-06 0.0
                  CHANNELS 3 Zrotation Yrotation Xrotation
                  JOINT LeftHandThumb1
                  {
                    OFFSET 2.276781 3.380274 0.83384
                    CHANNELS 3 Zrotation Yrotation Xrotation
                    JOINT LeftHandThumb2
                    {
                      OFFSET 4.705309 -1e-06 -1e-06
                      CHANNELS 3 Zrotation Yrotation Xrotation
                      JOINT LeftHandThumb3
                      {
                        OFFSET 2.798515 0.0 3e-06
                        CHANNELS 3 Zrotation Yrotation Xrotation
                        JOINT LeftHandThumbEnd
                        {
                          OFFSET 3.180793 4e-06 -4e-06
                          CHANNELS 3 Zrotation Yrotation Xrotation
                        }
                      }
                    }
                  }
                  JOINT LeftHandIndex1
                  {
                    OFFSET 3.247786 2.352677 0.137192
                    CHANNELS 3 Zrotation Yrotation Xrotation
                    JOINT LeftHandIndex2
                    {
                      OFFSET 6.367095 1e-06 0.0
                      CHANNELS 3 Zrotation Yrotation Xrotation
                      JOINT LeftHandIndex3
                      {
                        OFFSET 3.662364 0.0 0.0
                        CHANNELS 3 Zrotation Yrotation Xrotation
                        JOINT LeftHandIndex4
                        {
                          OFFSET 2.329242 4e-06 -4e-06
                          CHANNELS 3 Zrotation Yrotation Xrotation
                          JOINT LeftHandIndexEnd
                          {
                            OFFSET 2.767823 1e-06 0.0
                            CHANNELS 3 Zrotation Yrotation Xrotation
                          }
                        }
                      }
                    }
                  }
                  JOINT LeftHandMiddle1
                  {
                    OFFSET 3.163612 0.945023 -0.406112
                    CHANNELS 3 Zrotation Yrotation Xrotation
                    JOINT LeftHandMiddle2
                    {
                      OFFSET 6.276789 3e-06 0.0
                      CHANNELS 3 Zrotation Yrotation Xrotation
                      JOINT LeftHandMiddle3
                      {
                        OFFSET 4.35652 -1e-06 4e-06
                        CHANNELS 3 Zrotation Yrotation Xrotation
                        JOINT LeftHandMiddle4
                        {
                          OFFSET 2.996877 0.0 8e-06
                          CHANNELS 3 Zrotation Yrotation Xrotation
                          JOINT LeftHandMiddleEnd
                          {
                            OFFSET 2.323256 3e-06 -4e-06
                            CHANNELS 3 Zrotation Yrotation Xrotation
                          }
                        }
                      }
                    }
                  }
                  JOINT LeftHandRing1
                  {
                    OFFSET 2.882606 -0.309162 0.107445
                    CHANNELS 3 Zrotation Yrotation Xrotation
                    JOINT LeftHandRing2
                    {
                      OFFSET 6.033198 0.0 4e-06
                      CHANNELS 3 Zrotation Yrotation Xrotation
                      JOINT LeftHandRing3
                      {
                        OFFSET 4.350578 3e-06 0.0
                        CHANNELS 3 Zrotation Yrotation Xrotation
                        JOINT LeftHandRing4
                        {
                          OFFSET 2.651321 2e-06 -7e-06
                          CHANNELS 3 Zrotation Yrotation Xrotation
                          JOINT LeftHandRingEnd
                          {
                            OFFSET 1.937663 1e-06 -4e-06
                            CHANNELS 3 Zrotation Yrotation Xrotation
                          }
                        }
                      }
                    }
                  }
                  JOINT LeftHandPinky1
                  {
                    OFFSET 2.865315 -1.525436 0.575687
                    CHANNELS 3 Zrotation Yrotation Xrotation
                    JOINT LeftHandPinky2
                    {
                      OFFSET 5.54936 1e-06 -8e-06
                      CHANNELS 3 Zrotation Yrotation Xrotation
                      JOINT LeftHandPinky3
                      {
                        OFFSET 3.070974 0.0 -4e-06
                        CHANNELS 3 Zrotation Yrotation Xrotation
                        JOINT LeftHandPinky4
                        {
                          OFFSET 1.549672 1e-06 0.0
                          CHANNELS 3 Zrotation Yrotation Xrotation
                          JOINT LeftHandPinkyEnd
                          {
                            OFFSET 1.952123 0.0 0.0
                            CHANNELS 3 Zrotation Yrotation Xrotation
                          }
                        }
                      }
                    }
                  }
                }
              }
            }
          }
          JOINT RightShoulder
          {
            OFFSET 23.161716 5.296122 -1.380114
            CHANNELS 3 Zrotation Yrotation Xrotation
            JOINT RightArm
            {
              OFFSET -16.027195 -2e-06 1.1e-05
              CHANNELS 3 Zrotation Yrotation Xrotation
              JOINT RightForeArm
              {
                OFFSET -28.736639 4e-06 2e-06
                CHANNELS 3 Zrotation Yrotation Xrotation
                JOINT RightHand
                {
                  OFFSET -27.133619 6e-06 0.0
                  CHANNELS 3 Zrotation Yrotation Xrotation
                  JOINT RightHandThumb1
                  {
                    OFFSET -2.274328 -3.351035 -0.83067
                    CHANNELS 3 Zrotation Yrotation Xrotation
                    JOINT RightHandThumb2
                    {
                      OFFSET -4.703594 -3e-06 2e-06
                      CHANNELS 3 Zrotation Yrotation Xrotation
                      JOINT RightHandThumb3
                      {
                        OFFSET -2.794935 -4e-06 -3e-06
                        CHANNELS 3 Zrotation Yrotation Xrotation
                        JOINT RightHandThumbEnd
                        {
                          OFFSET -3.183852 4e-06 1e-06
                          CHANNELS 3 Zrotation Yrotation Xrotation
                        }
                      }
                    }
                  }
                  JOINT RightHandIndex1
                  {
                    OFFSET -3.253496 -2.33755 -0.127667
                    CHANNELS 3 Zrotation Yrotation Xrotation
                    JOINT RightHandIndex2
                    {
                      OFFSET -6.344434 0.0 0.0
                      CHANNELS 3 Zrotation Yrotation Xrotation
                      JOINT RightHandIndex3
                      {
                        OFFSET -3.654871 0.0 -8e-06
                        CHANNELS 3 Zrotation Yrotation Xrotation
                        JOINT RightHandIndex4
                        {
                          OFFSET -2.327586 -1e-06 0.0
                          CHANNELS 3 Zrotation Yrotation Xrotation
                          JOINT RightHandIndexEnd
                          {
                            OFFSET -2.770001 3e-06 8e-06
                            CHANNELS 3 Zrotation Yrotation Xrotation
                          }
                        }
                      }
                    }
                  }
                  JOINT RightHandMiddle1
                  {
                    OFFSET -3.168223 -0.944764 0.411762
                    CHANNELS 3 Zrotation Yrotation Xrotation
                    JOINT RightHandMiddle2
                    {
                      OFFSET -6.266691 -1e-06 -4e-06
                      CHANNELS 3 Zrotation Yrotation Xrotation
                      JOINT RightHandMiddle3
                      {
                        OFFSET -4.348901 0.0 0.0
                        CHANNELS 3 Zrotation Yrotation Xrotation
                        JOINT RightHandMiddle4
                        {
                          OFFSET -3.00024 2e-06 -4e-06
                          CHANNELS 3 Zrotation Yrotation Xrotation
                          JOINT RightHandMiddleEnd
                          {
                            OFFSET -2.321477 -4e-06 -4e-06
                            CHANNELS 3 Zrotation Yrotation Xrotation
                          }
                        }
                      }
                    }
                  }
                  JOINT RightHandRing1
                  {
                    OFFSET -2.885654 0.293261 -0.119232
                    CHANNELS 3 Zrotation Yrotation Xrotation
                    JOINT RightHandRing2
                    {
                      OFFSET -6.032835 -1e-06 -4e-06
                      CHANNELS 3 Zrotation Yrotation Xrotation
                      JOINT RightHandRing3
                      {
                        OFFSET -4.33881 0.0 -4e-06
                        CHANNELS 3 Zrotation Yrotation Xrotation
                        JOINT RightHandRing4
                        {
                          OFFSET -2.654903 -4e-06 -4e-06
                          CHANNELS 3 Zrotation Yrotation Xrotation
                          JOINT RightHandRingEnd
                          {
                            OFFSET -1.935122 0.0 4e-06
                            CHANNELS 3 Zrotation Yrotation Xrotation
                          }
                        }
                      }
                    }
                  }
                  JOINT RightHandPinky1
                  {
                    OFFSET -2.866241 1.503904 -0.60527
                    CHANNELS 3 Zrotation Yrotation Xrotation
                    JOINT RightHandPinky2
                    {
                      OFFSET -5.553177 -2e-06 0.0
                      CHANNELS 3 Zrotation Yrotation Xrotation
                      JOINT RightHandPinky3
                      {
                        OFFSET -3.062664 -1e-06 -4e-06
                        CHANNELS 3 Zrotation Yrotation Xrotation
                        JOINT RightHandPinky4
                        {
                          OFFSET -1.546529 2e-06 4e-06
                          CHANNELS 3 Zrotation Yrotation Xrotation
                          JOINT RightHandPinkyEnd
                          {
                            OFFSET -1.952341 0.0 -4e-06
                            CHANNELS 3 Zrotation Yrotation Xrotation
                          }
                        }
                      }
                    }
                  }
                }
              }
            }
          }
        }
      }
    }
    JOINT LeftLeg
    {
      OFFSET -8.443107 2.567604 10.043214
      CHANNELS 3 Zrotation Yrotation Xrotation
      JOINT LeftShin
      {
        OFFSET 43.229198 1e-06 -1e-06
        CHANNELS 3 Zrotation Yrotation Xrotation
        JOINT LeftFoot
        {
          OFFSET 42.298611 1e-06 1e-06
          CHANNELS 3 Zrotation Yrotation Xrotation
          JOINT LeftToeBase
          {
            OFFSET 14.165858 1e-06 0.0
            CHANNELS 3 Zrotation Yrotation Xrotation
            JOINT LeftToeEnd
            {
              OFFSET 6.7141 -0.234461 0.0
              CHANNELS 3 Zrotation Yrotation Xrotation
            }
          }
        }
      }
    }
    JOINT RightLeg
    {
      OFFSET -8.303923 2.592729 -10.047278
      CHANNELS 3 Zrotation Yrotation Xrotation
      JOINT RightShin
      {
        OFFSET -43.369682 0.0 1e-06
        CHANNELS 3 Zrotation Yrotation Xrotation
        JOINT RightFoot
        {
          OFFSET -42.260784 4e-06 2e-06
          CHANNELS 3 Zrotation Yrotation Xrotation
          JOINT RightToeBase
          {
            OFFSET -14.222245 -2e-06 -1e-06
            CHANNELS 3 Zrotation Yrotation Xrotation
            JOINT RightToeEnd
            {
              OFFSET -6.660062 0.232574 -2e-06
              CHANNELS 3 Zrotation Yrotation Xrotation
            }
          }
        }
      }
    }
  }
}
MOTION
Frames: 4
Frame Time: 0.03333333333333333
0.0 0.0 0.0 0.0 -0.0 0.0 1.696024 100.030151 1.391721 90.368675 2.200114 90.03643 -3.21166 0.751583 0.220212 -11.677639 -0.241008 0.247374 17.071003 0.509852 -2.253738 21.91379 -2.337247 2.194649 -2.41712 -0.565342 0.918233 -24.092554 0.457907 -1.089154 6e-06 -0.0 0.0 0.01659 -3.8e-05 -0.027038 0.018779 9e-05 -0.015188 0.037553 -0.007357 -0.032443 -170.311035 -78.081955 -178.44635 38.703232 -3.43973 -40.024426 15.629298 -0.734723 -0.596883 1.767341 5.337041 -74.865974 17.636625 -26.322725 52.411182 -19.466658 -14.395597 29.410381 1e-06 -8.774821 -2e-06 16.235123 -16.6054 5.760092 -0.609777 -1.795657 -3.889329 -4.80709 -11.046811 -2.937847 5e-06 -20.976015 -1e-06 -5.019972 -25.033556 -4.031878 7e-06 -0.0 1e-06 -10.634533 -5.686973 -3.565587 10.573275 -17.922949 -3.113903 2e-06 -13.821211 0.0 -0.501781 -31.181505 -4.027013 -11.088076 -59.233093 7.12252 -13.982712 -7.150199 -2.875043 13.772729 -8.401491 -3.218241 0.347733 -34.211555 0.771656 -0.96303 -17.73337 2.621018 -1e-06 2e-06 1e-06 -17.346413 -20.095217 -4.20178 21.757557 -1.638376 3.866426 -0.0 -6.338823 2e-06 -1.697589 -22.591742 -6.194004 1e-06 -5e-06 -3e-06 -2.352777 -83.955643 -167.265381 44.708416 -16.90654 -43.574757 37.786449 -1.149011 -0.336326 6.434282 14.879439 -73.040756 22.182116 -20.375887 49.9333 -16.701809 -16.743526 28.476528 -3e-06 -12.690598 -2e-06 16.183977 -17.538788 3.043926 -0.10592 -1.513855 -4.275883 -5.039041 -5.612873 -2.953556 3e-06 -11.020521 -2e-06 -6.111296 -15.895334 -3.84047 0.0 -1e-06 1e-06 -10.283369 -5.680286 -4.341839 11.028291 -11.302402 -2.372631 -1.384269 -14.238577 -6.320123 -0.625439 -26.924183 -3.827598 -5.10654 -50.839695 -2.720336 -13.708522 -7.363475 -3.720941 18.141146 -14.052737 -3.24267 5e-06 -18.787266 -2e-06 -0.429712 -8.456041 2.555504 1e-06 -3e-06 -0.0 -15.923532 -20.094481 -5.473585 30.419205 -7.190824 1.735927 0.0 -8.162924 -2e-06 -1.861901 -22.861469 -6.167942 -1e-06 -3e-06 -2e-06 -179.225479 -4.335819 -9.62427 11.018967 -0.038052 0.137366 -77.659927 -4.629127 -8.581223 -5.771254 1.44898 2.099007 -0.999999 0.0 0.0 0.385624 -6.127309 -9.035818 11.458124 0.05966 -0.039057 -77.312515 -5.15621 -8.746419 -5.513308 0.640629 1.650829 -1.000001 0.0 0.0 
0.0 0.0 0.0 0.0 -0.0 0.0 1.740504 100.023361 1.392313 90.379433 2.154938 90.017578 -3.192236 0.756029 0.220567 -11.679761 -0.217613 0.269636 17.056492 0.500371 -2.263814 21.765381 -2.372503 2.184825 -2.410405 -0.579643 0.87473 -24.232269 0.491499 -1.197287 6e-06 -0.0 -0.0 0.015847 0.001005 -0.013814 0.028202 -0.00063 -0.001997 0.044889 -0.004337 -0.018936 -169.7034 -78.015182 -179.034119 38.638649 -3.430196 -40.164021 15.904186 -0.733058 -0.584952 1.644264 5.477171 -74.559212 17.636635 -26.322733 52.411194 -19.46666 -14.3956 29.410389 0.0 -8.774822 -0.0 16.222105 -16.596937 5.767271 -0.609776 -1.795654 -3.889328 -4.80709 -11.04681 -2.937846 4e-06 -20.976015 -1e-06 -5.019973 -25.033558 -4.03188 8e-06 -0.0 1e-06 -10.634535 -5.686975 -3.565587 10.573274 -17.922951 -3.1139 2e-06 -13.82121 0.0 -0.501779 -31.181505 -4.027017 -11.088183 -59.226482 7.111782 -13.982717 -7.150201 -2.875042 13.772729 -8.401491 -3.218239 0.347733 -34.211555 0.771654 -0.963029 -17.73337 2.621019 -2e-06 2e-06 1e-06 -17.346422 -20.095219 -4.20178 21.757559 -1.638376 3.866427 1e-06 -6.338822 2e-06 -1.697591 -22.591745 -6.194005 1e-06 -4e-06 -3e-06 -2.193915 -84.095779 -167.37677 44.439182 -17.118124 -43.552868 38.536572 -1.197097 -0.32208 6.132969 14.915898 -72.222618 22.182117 -20.375898 49.933323 -16.701817 -16.74353 28.47653 -3e-06 -12.690599 -2e-06 16.151144 -17.540758 3.049867 -0.105919 -1.513856 -4.275881 -5.039041 -5.612873 -2.953557 4e-06 -11.020523 -2e-06 -6.111297 -15.895334 -3.840472 -1e-06 -1e-06 0.0 -10.283371 -5.680288 -4.341839 11.028295 -11.302406 -2.372632 -1.384268 -14.238582 -6.320123 -0.625434 -26.924194 -3.827601 -5.113743 -50.869442 -2.715356 -13.708526 -7.363478 -3.72094 18.141151 -14.052739 -3.242675 6e-06 -18.78727 -3e-06 -0.42971 -8.456044 2.555501 1e-06 -1e-06 -0.0 -15.923538 -20.094484 -5.473582 30.419214 -7.190824 1.735926 2e-06 -8.162927 -2e-06 -1.8619 -22.861473 -6.167943 -1e-06 -4e-06 -1e-06 -179.34729 -4.316283 -9.63496 11.194397 -0.038996 0.133675 -77.742516 -4.643008 -8.548716 -5.747818 1.448964 2.096173 -0.999999 -0.0 0.0 0.281788 -6.18167 -9.023985 11.59074 0.063997 -0.035898 -77.363174 -5.157554 -8.758542 -5.530117 0.637881 1.645427 -1.000002 -0.0 0.0 
0.0 0.0 0.0 0.0 -0.0 0.0 1.77819 100.019608 1.39242 90.384674 2.083038 89.999435 -3.162609 0.763314 0.212456 -11.689536 -0.202674 0.280432 17.036901 0.489608 -2.274909 21.58185 -2.371191 2.17158 -2.4072 -0.604217 0.865167 -24.409641 0.482239 -1.289267 6e-06 -0.0 -0.0 0.015938 0.001825 -0.003818 0.030236 0.00021 0.007224 0.0426 -0.003121 -0.008276 -168.985229 -77.980545 -179.732803 38.520142 -3.455707 -40.401814 16.206825 -0.705734 -0.561788 1.539265 5.73894 -74.24958 17.636616 -26.322725 52.411194 -19.466663 -14.395602 29.410393 0.0 -8.774822 0.0 16.206554 -16.638607 5.788201 -0.609775 -1.795654 -3.889326 -4.807089 -11.046811 -2.93785 5e-06 -20.976011 -3e-06 -5.01997 -25.033552 -4.031878 7e-06 0.0 -0.0 -10.634533 -5.68697 -3.565584 10.573274 -17.922947 -3.113907 2e-06 -13.821206 -1e-06 -0.501777 -31.181498 -4.027017 -11.093709 -59.169621 7.117105 -13.982708 -7.150197 -2.87504 13.772727 -8.401489 -3.218245 0.347735 -34.211536 0.771651 -0.963029 -17.733366 2.62102 1e-06 2e-06 0.0 -17.346413 -20.095213 -4.201781 21.757555 -1.638374 3.866425 1e-06 -6.338821 2e-06 -1.697588 -22.591738 -6.194006 1e-06 -4e-06 -3e-06 -1.609586 -84.236183 -167.917435 44.182972 -17.433161 -43.53027 39.435841 -1.169132 -0.297151 5.81734 15.023913 -71.448822 22.182106 -20.375887 49.933311 -16.701815 -16.743526 28.476532 -3e-06 -12.690598 -1e-06 16.1073 -17.5744 3.038862 -0.105921 -1.513855 -4.275881 -5.03904 -5.612872 -2.953557 3e-06 -11.020519 -3e-06 -6.111295 -15.89533 -3.840471 0.0 -1e-06 -0.0 -10.283369 -5.680288 -4.341838 11.02829 -11.302402 -2.372632 -1.384268 -14.238577 -6.320124 -0.625436 -26.924185 -3.827604 -5.087564 -50.790981 -2.716628 -13.708523 -7.363476 -3.720937 18.14115 -14.052736 -3.242674 6e-06 -18.787266 -2e-06 -0.429712 -8.456041 2.555501 2e-06 -0.0 -1e-06 -15.923532 -20.094479 -5.473584 30.419205 -7.190823 1.735922 2e-06 -8.162922 -2e-06 -1.8619 -22.861464 -6.16794 -1e-06 -3e-06 -1e-06 -179.494949 -4.302578 -9.64605 11.355061 -0.043869 0.124921 -77.811646 -4.661498 -8.503851 -5.715367 1.436461 2.090151 -0.999999 1e-06 0.0 0.164555 -6.224651 -9.049825 11.692965 0.060398 -0.032244 -77.396881 -5.138155 -8.766482 -5.522336 0.638538 1.64174 -1.000002 1e-06 -0.0 
0.0 0.0 0.0 0.0 -0.0 0.0 1.808659 100.019707 1.398508 90.392387 1.994717 89.959641 -3.130109 0.76674 0.194028 -11.698851 -0.201873 0.281938 17.008772 0.47856 -2.27318 21.390139 -2.349501 2.172237 -2.421798 -0.625361 0.861863 -24.581461 0.456747 -1.359994 6e-06 0.0 -0.0 0.013682 0.002241 -0.004712 0.023951 0.002579 0.005637 0.034318 -0.004381 -0.008822 -168.233231 -77.971199 179.57431 38.340038 -3.517345 -40.754845 16.536461 -0.624623 -0.536939 1.442235 6.137036 -73.971672 17.636639 -26.322737 52.411201 -19.466663 -14.395598 29.410389 1e-06 -8.774822 -2e-06 16.193939 -16.702475 5.807792 -0.609775 -1.795656 -3.889328 -4.807089 -11.046809 -2.93785 5e-06 -20.976017 -1e-06 -5.019971 -25.03356 -4.031882 6e-06 -0.0 2e-06 -10.634537 -5.686974 -3.565587 10.573277 -17.922951 -3.113902 2e-06 -13.821211 0.0 -0.501778 -31.181511 -4.027016 -11.089164 -59.12162 7.096086 -13.982716 -7.150198 -2.875044 13.772732 -8.401494 -3.21824 0.347732 -34.211555 0.771659 -0.963029 -17.733372 2.621023 -0.0 0.0 1e-06 -17.346422 -20.095219 -4.201784 21.757561 -1.638378 3.86643 1e-06 -6.338823 2e-06 -1.697589 -22.591745 -6.194006 -0.0 -3e-06 -2e-06 -0.83494 -84.360382 -168.660431 43.891941 -17.887104 -43.58427 40.515148 -1.132579 -0.263859 5.468573 15.178608 -70.674744 22.182114 -20.375896 49.933327 -16.701811 -16.743528 28.47653 -2e-06 -12.690599 -1e-06 16.073088 -17.631899 3.026489 -0.105919 -1.513857 -4.27588 -5.039041 -5.612873 -2.953557 3e-06 -11.020523 -2e-06 -6.111296 -15.895334 -3.840471 -0.0 0.0 -1e-06 -10.283371 -5.68029 -4.341836 11.028291 -11.302404 -2.372631 -1.384269 -14.238583 -6.320124 -0.625438 -26.924191 -3.8276 -5.041346 -50.668442 -2.741723 -13.708526 -7.363477 -3.720939 18.141148 -14.05274 -3.242673 5e-06 -18.78727 -1e-06 -0.42971 -8.456043 2.555502 3e-06 -1e-06 -0.0 -15.923534 -20.094482 -5.473587 30.419207 -7.190827 1.735928 0.0 -8.162925 -1e-06 -1.861901 -22.861471 -6.167942 -1e-06 -2e-06 0.0 -179.619217 -4.283618 -9.664991 11.439017 -0.04896 0.115527 -77.848137 -4.682059 -8.452153 -5.683393 1.412666 2.084426 -1.0 -0.0 -0.0 0.042913 -6.258541 -9.069228 11.765088 0.054884 -0.036395 -77.421944 -5.102622 -8.771124 -5.484395 0.637834 1.639158 -1.000002 -1e-06 -0.0 
